<svg xmlns="http://www.w3.org/2000/svg" version="1.1" xmlns:xlink="http://www.w3.org/1999/xlink" xmlns:svgjs="http://svgjs.dev/svgjs" width="1000" height="1000" viewBox="0 0 1000 1000"><rect width="1000" height="1000" fill="#000000"></rect><g transform="matrix(0.7,0,0,0.7,150.39253266859095,54.2421595744683)"><svg viewBox="0 0 111 141" data-background-color="#ffffff" preserveAspectRatio="xMidYMid meet" height="1270" width="1000" xmlns="http://www.w3.org/2000/svg" xmlns:xlink="http://www.w3.org/1999/xlink"><g id="tight-bounds" transform="matrix(1,0,0,1,-0.06224446601942191,0.19949999999997203)"><svg viewBox="0 0 111.12448893203883 140.60052000000002" height="140.60052000000002" width="111.12448893203883"><g><svg viewBox="0 0 111.12448893203883 140.60052000000002" height="140.60052000000002" width="111.12448893203883"><g><svg viewBox="0 0 111.12448893203883 140.60052000000002" height="140.60052000000002" width="111.12448893203883"><g><path d="M0 140.601v-140.601h111.124v140.601z" fill="#ffffff" stroke="transparent" stroke-width="0" rx="0%" data-fill-palette-color="tertiary"></path><path d="M3.283 137.317v-134.034h104.558v134.034z" fill="#000000" stroke="transparent" stroke-width="0" rx="0%" data-fill-palette-color="quaternary"></path><path d="M9.85 130.751v-120.901h91.425v120.901z" fill="#ffffff" stroke="transparent" stroke-width="0" data-fill-palette-color="tertiary"></path></g><g transform="matrix(1,0,0,1,19.69974,19.69974)" id="textblocktransform"><svg viewBox="0 0 71.72500893203883 101.20104000000002" height="101.20104000000002" width="71.72500893203883" id="textblock"><g><svg viewBox="0 0 71.72500893203883 101.20104000000002" height="101.20104000000002" width="71.72500893203883"><g transform="matrix(1,0,0,1,0,0)"><svg width="71.72500893203883" viewBox="0.8500000238418579 -35.29999923706055 25.549999237060547 36.04999923706055" height="101.20104000000002" data-palette-color="#ffffff"><path d="M14-35.3Q17.65-35.3 20.35-34.25 23.05-33.2 25.4-31.05L25.4-31.05 22.15-27.3Q20.3-28.85 18.43-29.55 16.55-30.25 14.4-30.25L14.4-30.25Q12-30.25 10.53-29.18 9.05-28.1 9.05-26.15L9.05-26.15Q9.05-24.85 9.63-24 10.2-23.15 11.7-22.4 13.2-21.65 16.15-20.75L16.15-20.75Q21.25-19.15 23.83-16.78 26.4-14.4 26.4-9.85L26.4-9.85Q26.4-6.75 24.83-4.35 23.25-1.95 20.3-0.6 17.35 0.75 13.3 0.75L13.3 0.75Q9.35 0.75 6.23-0.53 3.1-1.8 0.85-4L0.85-4 4.25-7.8Q6.25-6.1 8.4-5.23 10.55-4.35 13.15-4.35L13.15-4.35Q16-4.35 17.75-5.7 19.5-7.05 19.5-9.5L19.5-9.5Q19.5-11 18.9-11.98 18.3-12.95 16.85-13.73 15.4-14.5 12.65-15.35L12.65-15.35Q7.15-17.05 4.7-19.45 2.25-21.85 2.25-25.75L2.25-25.75Q2.25-28.6 3.75-30.75 5.25-32.9 7.93-34.1 10.6-35.3 14-35.3L14-35.3Z" opacity="1" transform="matrix(1,0,0,1,0,0)" fill="#000000" class="wordmark-text-0" data-fill-palette-color="quaternary" id="text-0"></path></svg></g></svg></g></svg></g></svg></g><g></g></svg></g><defs></defs></svg><rect width="111.12448893203883" height="140.60052000000002" fill="none" stroke="none" visibility="hidden"></rect></g></svg></g></svg>